<?xml version="1.0" encoding="utf-8"?>
<!-- Generator: Adobe Illustrator 26.2.1, SVG Export Plug-In . SVG Version: 6.00 Build 0)  -->
<svg version="1.1" id="Ebene_1" xmlns="http://www.w3.org/2000/svg" xmlns:xlink="http://www.w3.org/1999/xlink" x="0px" y="0px"
	 viewBox="0 0 400 400" style="enable-background:new 0 0 400 400;" xml:space="preserve">
<style type="text/css">
	.st0{opacity:0.8;fill:#AF7175;}
	.st1{display:none;}
	.st2{display:inline;fill:#FFFFFF;}
	.st3{fill:#FFFFFF;}
	.st4{display:inline;fill:#2F492F;}
	.st5{display:none;fill:#FFFFFF;}
</style>
<circle class="st0" cx="200" cy="200" r="200"/>
<g class="st1">
	<path class="st2" d="M315.43,135.67h-46.72c-12,0-12.45-11.19-12.46-12.46v-6.23c0-7.84-8.66-18.69-24.92-18.69h-62.1
		c-18.28,0-24.92,11.18-24.92,18.69v6.19c-0.01,0.51-0.3,12.5-12.65,12.5H84.95c-8.59,0-15.57,6.99-15.57,15.57v112.12
		c0,8.58,6.98,15.57,15.57,15.57h37.37c1.72,0,3.11-1.4,3.11-3.11c0-1.72-1.4-3.11-3.11-3.11H84.95c-5.15,0-9.34-4.19-9.34-9.34
		V185.5h49.83c-4.01,9.59-6.23,20.11-6.23,31.15c0,44.65,36.33,80.98,80.98,80.98s80.98-36.33,80.98-80.98
		c0-11.03-2.24-21.55-6.25-31.15h49.85v77.86c0,5.15-4.19,9.34-9.34,9.34h-43.6c-1.72,0-3.11,1.4-3.11,3.11
		c0,1.72,1.4,3.11,3.11,3.11h43.6c8.59,0,15.57-6.99,15.57-15.57V151.24C331,142.66,324.02,135.67,315.43,135.67z M200.19,291.4
		c-41.22,0-74.75-33.53-74.75-74.75s33.53-74.75,74.75-74.75s74.75,33.53,74.75,74.75S241.41,291.4,200.19,291.4z M273.38,179.28
		c-0.46,0-0.89,0.11-1.28,0.29c-13.48-26.03-40.63-43.9-71.91-43.9s-58.43,17.87-71.91,43.9c-0.39-0.18-0.82-0.29-1.28-0.29H75.61
		v-28.03c0-5.15,4.19-9.34,9.34-9.34h46.72c14.75,0,18.81-12.2,18.88-18.69v-6.23c0-5.01,4.98-12.46,18.69-12.46h62.1
		c13.04,0,18.69,8.25,18.69,12.46v6.23c0,6.47,3.91,18.69,18.69,18.69h46.72c5.15,0,9.34,4.19,9.34,9.34v28.03H273.38z"/>
	<path class="st2" d="M128.55,129.44c1.72,0,3.11-1.4,3.11-3.11v-6.23c0-5.15-4.19-9.34-9.34-9.34H97.41
		c-5.15,0-9.34,4.19-9.34,9.34v6.23c0,1.72,1.4,3.11,3.11,3.11s3.11-1.4,3.11-3.11v-6.23c0-1.72,1.4-3.11,3.11-3.11h24.92
		c1.71,0,3.11,1.4,3.11,3.11v6.23C125.44,128.05,126.83,129.44,128.55,129.44z"/>
	<path class="st2" d="M200.19,160.59c-30.92,0-56.06,25.15-56.06,56.06s25.15,56.06,56.06,56.06s56.06-25.15,56.06-56.06
		S231.1,160.59,200.19,160.59z M200.19,266.48c-27.48,0-49.83-22.36-49.83-49.83s22.36-49.83,49.83-49.83s49.83,22.36,49.83,49.83
		S227.66,266.48,200.19,266.48z"/>
</g>
<g>
	<path class="st3" d="M238.08,292.97h-76.6c-15.6,0-27.9-12.77-27.9-27.9v-85.58c0-2.84,1.89-4.73,4.73-4.73s4.73,1.89,4.73,4.73
		v85.58c0,10.4,8.51,18.44,18.44,18.44h76.6c10.4,0,18.44-8.51,18.44-18.44v-85.58c0-2.84,1.89-4.73,4.73-4.73
		c2.84,0,4.73,1.89,4.73,4.73v85.58C265.98,280.21,253.21,292.97,238.08,292.97z"/>
</g>
<g>
	<path class="st3" d="M263.14,127.01h-35.94c-2.36-13.24-13.71-23.17-27.42-23.17s-25.06,9.93-27.42,23.17h-35.94
		c-10.88,0-19.39,8.51-19.39,19.39c0,10.88,8.51,18.91,19.39,18.91h127.19c10.88,0,19.39-8.51,19.39-19.39
		S274.02,127.01,263.14,127.01z M199.78,113.3c8.51,0,15.6,5.67,17.49,13.71h-35.46C184.18,118.97,191.27,113.3,199.78,113.3z
		 M263.14,155.85H136.42c-5.2,0-9.93-4.26-9.93-9.93c0-5.2,4.26-9.93,9.93-9.93h127.19c5.2,0,9.93,4.26,9.93,9.93
		C273.07,151.6,268.81,155.85,263.14,155.85z"/>
</g>
<g>
	<path class="st3" d="M166.68,269.8c-2.84,0-4.73-1.89-4.73-4.73v-78.96c0-2.84,1.89-4.73,4.73-4.73c2.84,0,4.73,1.89,4.73,4.73
		v78.96C171.41,267.44,169.05,269.8,166.68,269.8z"/>
</g>
<g>
	<path class="st3" d="M232.88,269.8c-2.84,0-4.73-1.89-4.73-4.73v-78.96c0-2.84,1.89-4.73,4.73-4.73s4.73,1.89,4.73,4.73v78.96
		C237.61,267.44,235.24,269.8,232.88,269.8z"/>
</g>
<g>
	<path class="st3" d="M199.78,269.8c-2.84,0-4.73-1.89-4.73-4.73v-78.96c0-2.84,1.89-4.73,4.73-4.73c2.84,0,4.73,1.89,4.73,4.73
		v78.96C204.51,267.44,202.15,269.8,199.78,269.8z"/>
</g>
<g class="st1">
	<path class="st4" d="M315.96,144.53c-0.16-1.39-0.87-2.66-1.98-3.52l-44.18-34.78c-2.28-1.81-5.6-1.4-7.4,0.88l-75.64,96.06
		c-1.8,2.29-1.41,5.6,0.89,7.4c2.29,1.8,5.6,1.4,7.4-0.88l72.37-91.92l35.9,28.25l-85,107.67l-22.18,26.97
		c-1.85,2.25-1.52,5.57,0.73,7.42c0.98,0.81,2.16,1.2,3.34,1.2c1.52,0,3.03-0.66,4.07-1.92l22.25-27.05l88.34-111.89
		C315.73,147.32,316.13,145.92,315.96,144.53z"/>
	<path class="st4" d="M173.23,214.56c2.25,1.84,5.57,1.52,7.42-0.72c1.85-2.25,1.52-5.57-0.73-7.42l-59.92-49.29
		c-1.08-0.89-2.48-1.34-3.85-1.18c-1.4,0.13-2.67,0.82-3.56,1.9l-35.71,43.42c-1.85,2.25-1.52,5.57,0.72,7.42l102.35,84.2
		c0.99,0.81,2.17,1.2,3.35,1.2c1.52,0,3.03-0.66,4.07-1.92c1.85-2.25,1.52-5.57-0.72-7.42L88.35,203.9l29.02-35.28L173.23,214.56z"
		/>
</g>
<path class="st5" d="M200.29,312.69l-4.54-3.79C98.08,229.41,71.59,201.4,71.59,155.97c0-37.86,30.28-68.14,68.14-68.14
	c31.04,0,48.45,17.41,60.57,31.04c12.11-13.63,29.53-31.04,60.57-31.04c37.86,0,68.14,30.28,68.14,68.14
	c0,45.43-26.5,73.44-124.16,152.93L200.29,312.69z M139.72,102.97c-29.53,0-53,23.47-53,53c0,38.61,24.23,64.35,113.57,137.04
	c89.34-72.68,113.57-98.42,113.57-137.04c0-29.53-23.47-53-53-53c-26.5,0-40.88,15.9-52.24,28.77l-8.33,9.84l-8.33-9.84
	C180.61,118.87,166.22,102.97,139.72,102.97z"/>
</svg>
